<?xml version="1.0" encoding="iso-8859-1"?>
<!-- Generator: Adobe Illustrator 19.0.0, SVG Export Plug-In . SVG Version: 6.00 Build 0)  -->
<svg version="1.1" id="Layer_1" xmlns="http://www.w3.org/2000/svg" xmlns:xlink="http://www.w3.org/1999/xlink" x="0px" y="0px"
	 viewBox="0 0 512 512" style="enable-background:new 0 0 512 512;" xml:space="preserve">
<g transform="translate(1 1)">
	<g>
		<path style="fill:#FFE100;" d="M280.6,331.8H118.467c-5.12,0-8.533-3.413-8.533-8.533c0-23.893-18.773-42.667-42.667-42.667
			c-5.12,0-8.533-3.413-8.533-8.533V109.933c0-5.12,3.413-8.533,8.533-8.533c23.893,0,42.667-18.773,42.667-42.667
			c0-5.12,3.413-8.533,8.533-8.533H280.6c5.12,0,8.533,3.413,8.533,8.533c0,23.893,18.773,42.667,42.667,42.667
			c5.12,0,8.533,3.413,8.533,8.533v162.133c0,5.12-3.413,8.533-8.533,8.533c-23.893,0-42.667,18.773-42.667,42.667
			C289.133,328.387,285.72,331.8,280.6,331.8z M126.147,314.733h145.92c3.413-26.453,24.747-46.933,50.347-50.347V117.613
			c-26.453-3.413-46.933-24.747-50.347-50.347h-145.92C122.733,93.72,101.4,114.2,75.8,117.613v145.92
			C102.253,267.8,122.733,288.28,126.147,314.733z"/>
		<path style="fill:#FFE100;" d="M408.6,459.8H246.467c-5.12,0-8.533-3.413-8.533-8.533c0-23.893-18.773-42.667-42.667-42.667
			c-5.12,0-8.533-3.413-8.533-8.533V237.933c0-5.12,3.413-8.533,8.533-8.533c23.893,0,42.667-18.773,42.667-42.667
			c0-5.12,3.413-8.533,8.533-8.533H408.6c5.12,0,8.533,3.413,8.533,8.533c0,23.893,18.773,42.667,42.667,42.667
			c5.12,0,8.533,3.413,8.533,8.533v162.133c0,5.12-3.413,8.533-8.533,8.533c-23.893,0-42.667,18.773-42.667,42.667
			C417.133,456.387,413.72,459.8,408.6,459.8z M254.147,442.733h145.92c3.413-26.453,24.747-46.933,50.347-50.347V245.613
			c-26.453-3.413-46.933-24.747-50.347-50.347h-145.92C250.733,221.72,229.4,242.2,203.8,245.613v145.92
			C230.253,395.8,250.733,416.28,254.147,442.733z"/>
		<path style="fill:#FFE100;" d="M428.227,155.16c-2.56,0-4.267-0.853-5.973-2.56l-56.32-56.32c-3.413-3.413-3.413-8.533,0-11.947
			c3.413-3.413,8.533-3.413,11.947,0l56.32,56.32c3.413,3.413,3.413,8.533,0,11.947C432.493,154.307,429.933,155.16,428.227,155.16z
			"/>
		<path style="fill:#FFE100;" d="M155.16,428.227c-2.56,0-4.267-0.853-5.973-2.56l-56.32-56.32c-3.413-3.413-3.413-8.533,0-11.947
			c3.413-3.413,8.533-3.413,11.947,0l56.32,56.32c3.413,3.413,3.413,8.533,0,11.947C159.427,427.373,156.867,428.227,155.16,428.227
			z"/>
		<path style="fill:#FFE100;" d="M159.427,159.427c-2.56,0-4.267-0.853-5.973-2.56L97.987,101.4c-3.413-3.413-3.413-8.533,0-11.947
			s8.533-3.413,11.947,0L165.4,144.92c3.413,3.413,3.413,8.533,0,11.947C163.693,158.573,161.133,159.427,159.427,159.427z"/>
		<path style="fill:#FFE100;" d="M423.96,423.96c-2.56,0-4.267-0.853-5.973-2.56l-55.467-55.467c-3.413-3.413-3.413-8.533,0-11.947
			c3.413-3.413,8.533-3.413,11.947,0l55.467,55.467c3.413,3.413,3.413,8.533,0,11.947C428.227,423.107,425.667,423.96,423.96,423.96
			z"/>
	</g>
	<path style="fill:#FDCC00;" d="M92.867,58.733c0-28.16-15.36-51.2-34.133-51.2S24.6,30.573,24.6,58.733s15.36,51.2,34.133,51.2
		S92.867,86.893,92.867,58.733"/>
	<path style="fill:#FFA800;" d="M58.733,7.533c18.773,0,34.133,23.04,34.133,51.2s-15.36,51.2-34.133,51.2
		c28.16,0,51.2-23.04,51.2-51.2S86.893,7.533,58.733,7.533"/>
	<path style="fill:#FFFFFF;" d="M24.6,58.733c0-28.16,15.36-51.2,34.133-51.2c-28.16,0-51.2,23.04-51.2,51.2s23.04,51.2,51.2,51.2
		C39.96,109.933,24.6,86.893,24.6,58.733"/>
	<path style="fill:#FDCC00;" d="M357.4,58.733c0-28.16-15.36-51.2-34.133-51.2s-34.133,23.04-34.133,51.2s15.36,51.2,34.133,51.2
		S357.4,86.893,357.4,58.733"/>
	<path style="fill:#FFA800;" d="M323.267,7.533c18.773,0,34.133,23.04,34.133,51.2s-15.36,51.2-34.133,51.2
		c28.16,0,51.2-23.04,51.2-51.2S351.427,7.533,323.267,7.533"/>
	<path style="fill:#FFFFFF;" d="M289.133,58.733c0-28.16,15.36-51.2,34.133-51.2c-28.16,0-51.2,23.04-51.2,51.2
		s23.04,51.2,51.2,51.2C304.493,109.933,289.133,86.893,289.133,58.733"/>
	<path style="fill:#FDCC00;" d="M485.4,186.733c0-28.16-15.36-51.2-34.133-51.2s-34.133,23.04-34.133,51.2s15.36,51.2,34.133,51.2
		S485.4,214.893,485.4,186.733"/>
	<path style="fill:#FFA800;" d="M451.267,135.533c18.773,0,34.133,23.04,34.133,51.2s-15.36,51.2-34.133,51.2
		c28.16,0,51.2-23.04,51.2-51.2S479.427,135.533,451.267,135.533"/>
	<path style="fill:#FFFFFF;" d="M417.133,186.733c0-28.16,15.36-51.2,34.133-51.2c-28.16,0-51.2,23.04-51.2,51.2
		s23.04,51.2,51.2,51.2C432.493,237.933,417.133,214.893,417.133,186.733"/>
	<path style="fill:#FDCC00;" d="M220.867,186.733c0-28.16-15.36-51.2-34.133-51.2s-34.133,23.04-34.133,51.2s15.36,51.2,34.133,51.2
		S220.867,214.893,220.867,186.733"/>
	<path style="fill:#FFA800;" d="M186.733,135.533c18.773,0,34.133,23.04,34.133,51.2s-15.36,51.2-34.133,51.2
		c28.16,0,51.2-23.04,51.2-51.2S214.893,135.533,186.733,135.533"/>
	<path style="fill:#FFFFFF;" d="M152.6,186.733c0-28.16,15.36-51.2,34.133-51.2c-28.16,0-51.2,23.04-51.2,51.2s23.04,51.2,51.2,51.2
		C167.96,237.933,152.6,214.893,152.6,186.733"/>
	<path style="fill:#FDCC00;" d="M92.867,323.267c0-28.16-15.36-51.2-34.133-51.2s-34.133,23.04-34.133,51.2
		c0,28.16,15.36,51.2,34.133,51.2S92.867,351.427,92.867,323.267"/>
	<path style="fill:#FFA800;" d="M58.733,272.067c18.773,0,34.133,23.04,34.133,51.2c0,28.16-15.36,51.2-34.133,51.2
		c28.16,0,51.2-23.04,51.2-51.2C109.933,295.107,86.893,272.067,58.733,272.067"/>
	<path style="fill:#FFFFFF;" d="M24.6,323.267c0-28.16,15.36-51.2,34.133-51.2c-28.16,0-51.2,23.04-51.2,51.2
		c0,28.16,23.04,51.2,51.2,51.2C39.96,374.467,24.6,351.427,24.6,323.267"/>
	<path style="fill:#FDCC00;" d="M357.4,323.267c0-28.16-15.36-51.2-34.133-51.2s-34.133,23.04-34.133,51.2
		c0,28.16,15.36,51.2,34.133,51.2S357.4,351.427,357.4,323.267"/>
	<path style="fill:#FFA800;" d="M323.267,272.067c18.773,0,34.133,23.04,34.133,51.2c0,28.16-15.36,51.2-34.133,51.2
		c28.16,0,51.2-23.04,51.2-51.2C374.467,295.107,351.427,272.067,323.267,272.067"/>
	<path style="fill:#FFFFFF;" d="M289.133,323.267c0-28.16,15.36-51.2,34.133-51.2c-28.16,0-51.2,23.04-51.2,51.2
		c0,28.16,23.04,51.2,51.2,51.2C304.493,374.467,289.133,351.427,289.133,323.267"/>
	<path style="fill:#FDCC00;" d="M220.867,451.267c0-28.16-15.36-51.2-34.133-51.2s-34.133,23.04-34.133,51.2s15.36,51.2,34.133,51.2
		S220.867,479.427,220.867,451.267"/>
	<path style="fill:#FFA800;" d="M186.733,400.067c18.773,0,34.133,23.04,34.133,51.2s-15.36,51.2-34.133,51.2
		c28.16,0,51.2-23.04,51.2-51.2S214.893,400.067,186.733,400.067"/>
	<path style="fill:#FFFFFF;" d="M152.6,451.267c0-28.16,15.36-51.2,34.133-51.2c-28.16,0-51.2,23.04-51.2,51.2s23.04,51.2,51.2,51.2
		C167.96,502.467,152.6,479.427,152.6,451.267"/>
	<path style="fill:#FDCC00;" d="M485.4,451.267c0-28.16-15.36-51.2-34.133-51.2s-34.133,23.04-34.133,51.2s15.36,51.2,34.133,51.2
		S485.4,479.427,485.4,451.267"/>
	<path style="fill:#FFA800;" d="M451.267,400.067c18.773,0,34.133,23.04,34.133,51.2s-15.36,51.2-34.133,51.2
		c28.16,0,51.2-23.04,51.2-51.2S479.427,400.067,451.267,400.067"/>
	<path style="fill:#FFFFFF;" d="M417.133,451.267c0-28.16,15.36-51.2,34.133-51.2c-28.16,0-51.2,23.04-51.2,51.2
		s23.04,51.2,51.2,51.2C432.493,502.467,417.133,479.427,417.133,451.267"/>
	<path d="M58.733,118.467C25.453,118.467-1,92.013-1,58.733S25.453-1,58.733-1s59.733,26.453,59.733,59.733
		S92.013,118.467,58.733,118.467z M58.733,16.067c-23.893,0-42.667,18.773-42.667,42.667S34.84,101.4,58.733,101.4
		S101.4,82.627,101.4,58.733S82.627,16.067,58.733,16.067z"/>
	<path d="M41.667,67.267c-5.12,0-8.533-3.413-8.533-8.533c0-14.507,11.093-25.6,25.6-25.6c5.12,0,8.533,3.413,8.533,8.533
		S63.853,50.2,58.733,50.2S50.2,53.613,50.2,58.733S46.787,67.267,41.667,67.267z"/>
	<path d="M306.2,67.267c-5.12,0-8.533-3.413-8.533-8.533c0-14.507,11.093-25.6,25.6-25.6c5.12,0,8.533,3.413,8.533,8.533
		s-3.413,8.533-8.533,8.533c-5.12,0-8.533,3.413-8.533,8.533S311.32,67.267,306.2,67.267z"/>
	<path d="M41.667,331.8c-5.12,0-8.533-3.413-8.533-8.533c0-14.507,11.093-25.6,25.6-25.6c5.12,0,8.533,3.413,8.533,8.533
		s-3.413,8.533-8.533,8.533s-8.533,3.413-8.533,8.533C50.2,328.387,46.787,331.8,41.667,331.8z"/>
	<path d="M306.2,331.8c-5.12,0-8.533-3.413-8.533-8.533c0-14.507,11.093-25.6,25.6-25.6c5.12,0,8.533,3.413,8.533,8.533
		s-3.413,8.533-8.533,8.533c-5.12,0-8.533,3.413-8.533,8.533C314.733,328.387,311.32,331.8,306.2,331.8z"/>
	<path d="M169.667,195.267c-5.12,0-8.533-3.413-8.533-8.533c0-14.507,11.093-25.6,25.6-25.6c5.12,0,8.533,3.413,8.533,8.533
		c0,5.12-3.413,8.533-8.533,8.533c-5.12,0-8.533,3.413-8.533,8.533C178.2,191.853,174.787,195.267,169.667,195.267z"/>
	<path d="M434.2,195.267c-5.12,0-8.533-3.413-8.533-8.533c0-14.507,11.093-25.6,25.6-25.6c5.12,0,8.533,3.413,8.533,8.533
		c0,5.12-3.413,8.533-8.533,8.533s-8.533,3.413-8.533,8.533C442.733,191.853,439.32,195.267,434.2,195.267z"/>
	<path d="M169.667,459.8c-5.12,0-8.533-3.413-8.533-8.533c0-14.507,11.093-25.6,25.6-25.6c5.12,0,8.533,3.413,8.533,8.533
		c0,5.12-3.413,8.533-8.533,8.533c-5.12,0-8.533,3.413-8.533,8.533S174.787,459.8,169.667,459.8z"/>
	<path d="M434.2,459.8c-5.12,0-8.533-3.413-8.533-8.533c0-14.507,11.093-25.6,25.6-25.6c5.12,0,8.533,3.413,8.533,8.533
		c0,5.12-3.413,8.533-8.533,8.533s-8.533,3.413-8.533,8.533S439.32,459.8,434.2,459.8z"/>
	<path d="M323.267,118.467c-33.28,0-59.733-26.453-59.733-59.733S289.987-1,323.267-1S383,25.453,383,58.733
		S356.547,118.467,323.267,118.467z M323.267,16.067c-23.893,0-42.667,18.773-42.667,42.667s18.773,42.667,42.667,42.667
		c23.893,0,42.667-18.773,42.667-42.667S347.16,16.067,323.267,16.067z"/>
	<path d="M58.733,383C25.453,383-1,356.547-1,323.267s26.453-59.733,59.733-59.733s59.733,26.453,59.733,59.733
		S92.013,383,58.733,383z M58.733,280.6c-23.893,0-42.667,18.773-42.667,42.667c0,23.893,18.773,42.667,42.667,42.667
		S101.4,347.16,101.4,323.267C101.4,299.373,82.627,280.6,58.733,280.6z"/>
	<path d="M323.267,383c-33.28,0-59.733-26.453-59.733-59.733s26.453-59.733,59.733-59.733S383,289.987,383,323.267
		S356.547,383,323.267,383z M323.267,280.6c-23.893,0-42.667,18.773-42.667,42.667c0,23.893,18.773,42.667,42.667,42.667
		c23.893,0,42.667-18.773,42.667-42.667C365.933,299.373,347.16,280.6,323.267,280.6z"/>
	<path d="M186.733,246.467c-33.28,0-59.733-26.453-59.733-59.733S153.453,127,186.733,127s59.733,26.453,59.733,59.733
		S220.013,246.467,186.733,246.467z M186.733,144.067c-23.893,0-42.667,18.773-42.667,42.667S162.84,229.4,186.733,229.4
		s42.667-18.773,42.667-42.667S210.627,144.067,186.733,144.067z"/>
	<path d="M451.267,246.467c-33.28,0-59.733-26.453-59.733-59.733S417.987,127,451.267,127S511,153.453,511,186.733
		S484.547,246.467,451.267,246.467z M451.267,144.067c-23.893,0-42.667,18.773-42.667,42.667s18.773,42.667,42.667,42.667
		c23.893,0,42.667-18.773,42.667-42.667S475.16,144.067,451.267,144.067z"/>
	<path d="M186.733,511C153.453,511,127,484.547,127,451.267s26.453-59.733,59.733-59.733s59.733,26.453,59.733,59.733
		S220.013,511,186.733,511z M186.733,408.6c-23.893,0-42.667,18.773-42.667,42.667c0,23.893,18.773,42.667,42.667,42.667
		S229.4,475.16,229.4,451.267C229.4,427.373,210.627,408.6,186.733,408.6z"/>
	<path d="M451.267,511c-33.28,0-59.733-26.453-59.733-59.733s26.453-59.733,59.733-59.733S511,417.987,511,451.267
		S484.547,511,451.267,511z M451.267,408.6c-23.893,0-42.667,18.773-42.667,42.667c0,23.893,18.773,42.667,42.667,42.667
		c23.893,0,42.667-18.773,42.667-42.667C493.933,427.373,475.16,408.6,451.267,408.6z"/>
	<path d="M272.067,331.8H109.933c-5.12,0-8.533-3.413-8.533-8.533c0-23.893-18.773-42.667-42.667-42.667
		c-5.12,0-8.533-3.413-8.533-8.533V109.933c0-5.12,3.413-8.533,8.533-8.533c23.893,0,42.667-18.773,42.667-42.667
		c0-5.12,3.413-8.533,8.533-8.533h162.133c5.12,0,8.533,3.413,8.533,8.533c0,23.893,18.773,42.667,42.667,42.667
		c5.12,0,8.533,3.413,8.533,8.533v162.133c0,5.12-3.413,8.533-8.533,8.533c-23.893,0-42.667,18.773-42.667,42.667
		C280.6,328.387,277.187,331.8,272.067,331.8z M117.613,314.733h145.92c3.413-26.453,24.747-46.933,50.347-50.347V117.613
		c-26.453-3.413-46.933-24.747-50.347-50.347h-145.92C114.2,93.72,92.867,114.2,67.267,117.613v145.92
		C93.72,267.8,114.2,288.28,117.613,314.733z"/>
	<path d="M400.067,459.8H237.933c-5.12,0-8.533-3.413-8.533-8.533c0-23.893-18.773-42.667-42.667-42.667
		c-5.12,0-8.533-3.413-8.533-8.533V237.933c0-5.12,3.413-8.533,8.533-8.533c23.893,0,42.667-18.773,42.667-42.667
		c0-5.12,3.413-8.533,8.533-8.533h162.133c5.12,0,8.533,3.413,8.533,8.533c0,23.893,18.773,42.667,42.667,42.667
		c5.12,0,8.533,3.413,8.533,8.533v162.133c0,5.12-3.413,8.533-8.533,8.533c-23.893,0-42.667,18.773-42.667,42.667
		C408.6,456.387,405.187,459.8,400.067,459.8z M245.613,442.733h145.92c3.413-26.453,24.747-46.933,50.347-50.347V245.613
		c-26.453-3.413-46.933-24.747-50.347-50.347h-145.92c-3.413,26.453-24.747,46.933-50.347,50.347v145.92
		C221.72,395.8,242.2,416.28,245.613,442.733z"/>
	<path d="M419.693,155.16c-2.56,0-4.267-0.853-5.973-2.56L357.4,96.28c-3.413-3.413-3.413-8.533,0-11.947
		c3.413-3.413,8.533-3.413,11.947,0l56.32,56.32c3.413,3.413,3.413,8.533,0,11.947C423.96,154.307,421.4,155.16,419.693,155.16z"/>
	<path d="M146.627,428.227c-2.56,0-4.267-0.853-5.973-2.56l-56.32-56.32c-3.413-3.413-3.413-8.533,0-11.947
		c3.413-3.413,8.533-3.413,11.947,0l56.32,56.32c3.413,3.413,3.413,8.533,0,11.947C150.893,427.373,148.333,428.227,146.627,428.227
		z"/>
	<path d="M150.893,159.427c-2.56,0-4.267-0.853-5.973-2.56L89.453,101.4c-3.413-3.413-3.413-8.533,0-11.947s8.533-3.413,11.947,0
		l55.467,55.467c3.413,3.413,3.413,8.533,0,11.947C155.16,158.573,152.6,159.427,150.893,159.427z"/>
	<path d="M415.427,423.96c-2.56,0-4.267-0.853-5.973-2.56l-55.467-55.467c-3.413-3.413-3.413-8.533,0-11.947
		c3.413-3.413,8.533-3.413,11.947,0l55.467,55.467c3.413,3.413,3.413,8.533,0,11.947C419.693,423.107,417.133,423.96,415.427,423.96
		z"/>
</g>
<g>
</g>
<g>
</g>
<g>
</g>
<g>
</g>
<g>
</g>
<g>
</g>
<g>
</g>
<g>
</g>
<g>
</g>
<g>
</g>
<g>
</g>
<g>
</g>
<g>
</g>
<g>
</g>
<g>
</g>
</svg>
