<?xml version="1.0" encoding="iso-8859-1"?>
<!-- Generator: Adobe Illustrator 19.0.0, SVG Export Plug-In . SVG Version: 6.00 Build 0)  -->
<svg version="1.1" id="Layer_1" xmlns="http://www.w3.org/2000/svg" xmlns:xlink="http://www.w3.org/1999/xlink" x="0px" y="0px"
	 viewBox="0 0 512 512" style="enable-background:new 0 0 512 512;" xml:space="preserve">
<g transform="translate(1 1)">
	<g>
		<path style="fill:#FFE100;" d="M422.253,109.933c-3.413-5.12-5.12-11.093-5.12-17.067c0-5.973,1.707-11.947,5.12-17.067H87.747
			c3.413,5.12,5.12,11.093,5.12,17.067c0,5.973-1.707,11.947-5.12,17.067H422.253z"/>
		<path style="fill:#FFE100;" d="M392.387,248.173c-3.413,0-6.827-2.56-7.68-5.973l-43.52-129.707
			c-1.707-4.267,0.853-9.387,5.12-11.093c4.267-1.707,9.387,0.853,11.093,5.12l42.667,129.707c1.707,4.267-0.853,9.387-5.12,11.093
			C394.093,247.32,393.24,248.173,392.387,248.173z"/>
	</g>
	<path style="fill:#FFA800;" d="M161.133,263.533c0-14.507-11.093-25.6-25.6-25.6s-25.6,11.093-25.6,25.6
		c0,14.507,11.093,25.6,25.6,25.6S161.133,278.04,161.133,263.533"/>
	<path style="fill:#FFE100;" d="M144.067,263.533c0-14.507-7.68-25.6-17.067-25.6s-17.067,11.093-17.067,25.6
		c0,14.507,7.68,25.6,17.067,25.6S144.067,278.04,144.067,263.533"/>
	<path style="fill:#FFA800;" d="M212.333,263.533c0-14.507-11.093-25.6-25.6-25.6c-14.507,0-25.6,11.093-25.6,25.6
		c0,14.507,11.093,25.6,25.6,25.6C201.24,289.133,212.333,278.04,212.333,263.533"/>
	<path style="fill:#FFE100;" d="M195.267,263.533c0-14.507-7.68-25.6-17.067-25.6s-17.067,11.093-17.067,25.6
		c0,14.507,7.68,25.6,17.067,25.6S195.267,278.04,195.267,263.533"/>
	<path style="fill:#FFA800;" d="M263.533,263.533c0-14.507-11.093-25.6-25.6-25.6c-14.507,0-25.6,11.093-25.6,25.6
		c0,14.507,11.093,25.6,25.6,25.6C252.44,289.133,263.533,278.04,263.533,263.533"/>
	<path style="fill:#FFE100;" d="M246.467,263.533c0-14.507-7.68-25.6-17.067-25.6s-17.067,11.093-17.067,25.6
		c0,14.507,7.68,25.6,17.067,25.6S246.467,278.04,246.467,263.533"/>
	<path style="fill:#FFA800;" d="M314.733,263.533c0-14.507-11.093-25.6-25.6-25.6c-14.507,0-25.6,11.093-25.6,25.6
		c0,14.507,11.093,25.6,25.6,25.6C303.64,289.133,314.733,278.04,314.733,263.533"/>
	<path style="fill:#FFE100;" d="M297.667,263.533c0-14.507-7.68-25.6-17.067-25.6s-17.067,11.093-17.067,25.6
		c0,14.507,7.68,25.6,17.067,25.6S297.667,278.04,297.667,263.533"/>
	<path style="fill:#FFA800;" d="M417.133,263.533c0-14.507-11.093-25.6-25.6-25.6s-25.6,11.093-25.6,25.6
		c0,14.507,11.093,25.6,25.6,25.6S417.133,278.04,417.133,263.533"/>
	<g>
		<path style="fill:#FFE100;" d="M400.067,263.533c0-14.507-7.68-25.6-17.067-25.6s-17.067,11.093-17.067,25.6
			c0,14.507,7.68,25.6,17.067,25.6S400.067,278.04,400.067,263.533"/>
		<path style="fill:#FFE100;" d="M459.8,451.267H50.2c-9.387,0-17.067-7.68-17.067-17.067s7.68-17.067,17.067-17.067h409.6
			c9.387,0,17.067,7.68,17.067,17.067S469.187,451.267,459.8,451.267"/>
	</g>
	<path style="fill:#FFFFFF;" d="M33.133,434.2c0-9.387,7.68-17.067,17.067-17.067H24.6c-9.387,0-17.067,7.68-17.067,17.067
		s7.68,17.067,17.067,17.067h25.6C40.813,451.267,33.133,443.587,33.133,434.2"/>
	<path style="fill:#FFA800;" d="M485.4,417.133h-25.6c9.387,0,17.067,7.68,17.067,17.067s-7.68,17.067-17.067,17.067h25.6
		c9.387,0,17.067-7.68,17.067-17.067S494.787,417.133,485.4,417.133"/>
	<g>
		<path style="fill:#FFE100;" d="M67.267,425.667c-5.12,0-8.533-3.413-8.533-8.533V127c0-5.12,3.413-8.533,8.533-8.533
			S75.8,121.88,75.8,127v290.133C75.8,422.253,72.387,425.667,67.267,425.667z"/>
		<path style="fill:#FFE100;" d="M459.8,425.667c-5.12,0-8.533-3.413-8.533-8.533V127c0-5.12,3.413-8.533,8.533-8.533
			s8.533,3.413,8.533,8.533v290.133C468.333,422.253,464.92,425.667,459.8,425.667z"/>
		<path style="fill:#FFE100;" d="M144.067,246.467c-5.12,0-8.533-3.413-8.533-8.533v-128c0-5.12,3.413-8.533,8.533-8.533
			c5.12,0,8.533,3.413,8.533,8.533v128C152.6,243.053,149.187,246.467,144.067,246.467z"/>
		<path style="fill:#FFE100;" d="M195.267,246.467c-5.12,0-8.533-3.413-8.533-8.533v-128c0-5.12,3.413-8.533,8.533-8.533
			c5.12,0,8.533,3.413,8.533,8.533v128C203.8,243.053,200.387,246.467,195.267,246.467z"/>
		<path style="fill:#FFE100;" d="M246.467,246.467c-5.12,0-8.533-3.413-8.533-8.533v-128c0-5.12,3.413-8.533,8.533-8.533
			c5.12,0,8.533,3.413,8.533,8.533v128C255,243.053,251.587,246.467,246.467,246.467z"/>
		<path style="fill:#FFE100;" d="M297.667,246.467c-5.12,0-8.533-3.413-8.533-8.533v-128c0-5.12,3.413-8.533,8.533-8.533
			s8.533,3.413,8.533,8.533v128C306.2,243.053,302.787,246.467,297.667,246.467z"/>
	</g>
	<path style="fill:#FFA800;" d="M485.4,92.867c0-18.773-15.36-34.133-34.133-34.133s-34.133,15.36-34.133,34.133
		S432.493,127,451.267,127S485.4,111.64,485.4,92.867"/>
	<path style="fill:#FFE100;" d="M459.8,92.867c0-18.773-9.387-34.133-21.333-34.133c-11.947,0-21.333,15.36-21.333,34.133
		S426.52,127,438.467,127C450.413,127,459.8,111.64,459.8,92.867"/>
	<path style="fill:#FFFFFF;" d="M24.6,92.867C24.6,111.64,39.96,127,58.733,127s34.133-15.36,34.133-34.133
		s-15.36-34.133-34.133-34.133S24.6,74.093,24.6,92.867"/>
	<path style="fill:#FFE100;" d="M50.2,92.867C50.2,111.64,59.587,127,71.533,127s21.333-15.36,21.333-34.133
		S83.48,58.733,71.533,58.733S50.2,74.093,50.2,92.867"/>
	<path d="M485.4,459.8H24.6C10.093,459.8-1,448.707-1,434.2c0-14.507,11.093-25.6,25.6-25.6h460.8c14.507,0,25.6,11.093,25.6,25.6
		C511,448.707,499.907,459.8,485.4,459.8z M24.6,425.667c-5.12,0-8.533,3.413-8.533,8.533c0,5.12,3.413,8.533,8.533,8.533h460.8
		c5.12,0,8.533-3.413,8.533-8.533c0-5.12-3.413-8.533-8.533-8.533H24.6z"/>
	<path d="M58.733,425.667c-5.12,0-8.533-3.413-8.533-8.533V127c0-5.12,3.413-8.533,8.533-8.533s8.533,3.413,8.533,8.533v290.133
		C67.267,422.253,63.853,425.667,58.733,425.667z"/>
	<path d="M451.267,425.667c-5.12,0-8.533-3.413-8.533-8.533V127c0-5.12,3.413-8.533,8.533-8.533S459.8,121.88,459.8,127v290.133
		C459.8,422.253,456.387,425.667,451.267,425.667z"/>
	<path d="M135.533,297.667c-18.773,0-34.133-15.36-34.133-34.133s15.36-34.133,34.133-34.133s34.133,15.36,34.133,34.133
		S154.307,297.667,135.533,297.667z M135.533,246.467c-9.387,0-17.067,7.68-17.067,17.067c0,9.387,7.68,17.067,17.067,17.067
		s17.067-7.68,17.067-17.067C152.6,254.147,144.92,246.467,135.533,246.467z"/>
	<path d="M186.733,297.667c-18.773,0-34.133-15.36-34.133-34.133s15.36-34.133,34.133-34.133s34.133,15.36,34.133,34.133
		S205.507,297.667,186.733,297.667z M186.733,246.467c-9.387,0-17.067,7.68-17.067,17.067c0,9.387,7.68,17.067,17.067,17.067
		c9.387,0,17.067-7.68,17.067-17.067C203.8,254.147,196.12,246.467,186.733,246.467z"/>
	<path d="M237.933,297.667c-18.773,0-34.133-15.36-34.133-34.133s15.36-34.133,34.133-34.133s34.133,15.36,34.133,34.133
		S256.707,297.667,237.933,297.667z M237.933,246.467c-9.387,0-17.067,7.68-17.067,17.067c0,9.387,7.68,17.067,17.067,17.067
		S255,272.92,255,263.533C255,254.147,247.32,246.467,237.933,246.467z"/>
	<path d="M289.133,297.667c-18.773,0-34.133-15.36-34.133-34.133s15.36-34.133,34.133-34.133c18.773,0,34.133,15.36,34.133,34.133
		S307.907,297.667,289.133,297.667z M289.133,246.467c-9.387,0-17.067,7.68-17.067,17.067c0,9.387,7.68,17.067,17.067,17.067
		c9.387,0,17.067-7.68,17.067-17.067C306.2,254.147,298.52,246.467,289.133,246.467z"/>
	<path d="M391.533,297.667c-18.773,0-34.133-15.36-34.133-34.133s15.36-34.133,34.133-34.133s34.133,15.36,34.133,34.133
		S410.307,297.667,391.533,297.667z M391.533,246.467c-9.387,0-17.067,7.68-17.067,17.067c0,9.387,7.68,17.067,17.067,17.067
		s17.067-7.68,17.067-17.067C408.6,254.147,400.92,246.467,391.533,246.467z"/>
	<path d="M135.533,246.467c-5.12,0-8.533-3.413-8.533-8.533v-128c0-5.12,3.413-8.533,8.533-8.533s8.533,3.413,8.533,8.533v128
		C144.067,243.053,140.653,246.467,135.533,246.467z"/>
	<path d="M186.733,246.467c-5.12,0-8.533-3.413-8.533-8.533v-128c0-5.12,3.413-8.533,8.533-8.533c5.12,0,8.533,3.413,8.533,8.533
		v128C195.267,243.053,191.853,246.467,186.733,246.467z"/>
	<path d="M237.933,246.467c-5.12,0-8.533-3.413-8.533-8.533v-128c0-5.12,3.413-8.533,8.533-8.533c5.12,0,8.533,3.413,8.533,8.533
		v128C246.467,243.053,243.053,246.467,237.933,246.467z"/>
	<path d="M289.133,246.467c-5.12,0-8.533-3.413-8.533-8.533v-128c0-5.12,3.413-8.533,8.533-8.533c5.12,0,8.533,3.413,8.533,8.533
		v128C297.667,243.053,294.253,246.467,289.133,246.467z"/>
	<path d="M383.853,248.173c-3.413,0-6.827-2.56-7.68-5.973l-43.52-129.707c-1.707-4.267,0.853-9.387,5.12-11.093
		c4.267-1.707,9.387,0.853,11.093,5.12l42.667,129.707c1.707,4.267-0.853,9.387-5.12,11.093
		C385.56,247.32,384.707,248.173,383.853,248.173z"/>
	<path d="M58.733,135.533c-23.893,0-42.667-18.773-42.667-42.667S34.84,50.2,58.733,50.2S101.4,68.973,101.4,92.867
		S82.627,135.533,58.733,135.533z M58.733,67.267c-14.507,0-25.6,11.093-25.6,25.6s11.093,25.6,25.6,25.6s25.6-11.093,25.6-25.6
		S73.24,67.267,58.733,67.267z"/>
	<path d="M451.267,135.533c-23.893,0-42.667-18.773-42.667-42.667S427.373,50.2,451.267,50.2c23.893,0,42.667,18.773,42.667,42.667
		S475.16,135.533,451.267,135.533z M451.267,67.267c-14.507,0-25.6,11.093-25.6,25.6s11.093,25.6,25.6,25.6s25.6-11.093,25.6-25.6
		S465.773,67.267,451.267,67.267z"/>
	<path d="M422.253,118.467H87.747c-2.56,0-5.12-1.707-6.827-4.267c-1.707-2.56-1.707-5.973,0-8.533
		c2.56-4.267,3.413-8.533,3.413-12.8c0-4.267-0.853-8.533-3.413-12.8c-1.707-2.56-1.707-5.973,0-8.533
		c1.707-2.56,4.267-4.267,6.827-4.267H421.4c3.413,0,5.973,1.707,7.68,4.267c1.707,2.56,1.707,5.973,0,8.533
		c-2.56,4.267-3.413,8.533-3.413,12.8c0,4.267,0.853,8.533,3.413,12.8c1.707,2.56,1.707,5.973,0,8.533
		C427.373,116.76,424.813,118.467,422.253,118.467z M100.547,101.4h308.907c-0.853-2.56-0.853-5.973-0.853-8.533
		c0-2.56,0-5.973,0.853-8.533H100.547c0.853,2.56,0.853,5.973,0.853,8.533C101.4,95.427,101.4,98.84,100.547,101.4z"/>
</g>
<g>
</g>
<g>
</g>
<g>
</g>
<g>
</g>
<g>
</g>
<g>
</g>
<g>
</g>
<g>
</g>
<g>
</g>
<g>
</g>
<g>
</g>
<g>
</g>
<g>
</g>
<g>
</g>
<g>
</g>
</svg>
